<svg width="3066" height="832" viewBox="0 0 3066 832" fill="none" xmlns="http://www.w3.org/2000/svg">
<mask id="mask0_151_49" style="mask-type:luminance" maskUnits="userSpaceOnUse" x="0" y="0" width="832" height="832">
<path fill-rule="evenodd" clip-rule="evenodd" d="M832 259.119C832 249.242 832.004 239.364 831.943 229.486C831.894 221.165 831.798 212.846 831.572 204.529C831.083 186.402 830.014 168.119 826.79 150.194C823.52 132.01 818.181 115.086 809.767 98.5644C801.496 82.3253 790.691 67.4655 777.799 54.5826C764.91 41.6998 750.046 30.902 733.801 22.6356C717.262 14.2197 700.321 8.88238 682.117 5.61396C664.19 2.39502 645.902 1.32776 627.775 0.838055C619.452 0.612891 611.129 0.517979 602.804 0.466484C592.921 0.405901 583.038 0.41095 573.155 0.41095L458.404 0H372.58L259.86 0.41095C249.958 0.41095 240.055 0.405901 230.153 0.466484C221.811 0.517979 213.473 0.612891 205.134 0.838055C186.964 1.32776 168.635 2.39603 150.666 5.61901C132.437 8.88641 115.47 14.2217 98.9093 22.6315C82.6299 30.899 67.7338 41.6978 54.8177 54.5826C41.9036 67.4645 31.0786 82.3213 22.792 98.5573C14.3549 115.087 9.00553 132.021 5.72804 150.215C2.50103 168.133 1.43176 186.41 0.940032 204.529C0.715878 212.847 0.618947 221.166 0.568462 229.486C0.50788 239.365 0 251.636 0 261.514L0.0030291 372.672L0 459.416L0.512928 572.936C0.512928 582.827 0.508889 592.718 0.568462 602.609C0.618947 610.941 0.715878 619.271 0.941042 627.6C1.43176 645.751 2.50305 664.06 5.73308 682.009C9.00956 700.217 14.358 717.165 22.7879 733.708C31.0756 749.971 41.9026 764.85 54.8177 777.751C67.7328 790.652 82.6249 801.463 98.9012 809.742C115.472 818.169 132.448 823.513 150.687 826.786C168.648 830.01 186.971 831.079 205.134 831.569C213.473 831.794 221.812 831.89 230.154 831.94C240.056 832.001 249.958 831.997 259.86 831.997L373.599 832H459.636L573.155 831.996C583.038 831.996 592.921 832.001 602.804 831.94C611.129 831.89 619.452 831.794 627.775 831.569C645.909 831.078 664.203 830.008 682.138 826.782C700.331 823.509 717.264 818.167 733.794 809.745C750.042 801.468 764.909 790.654 777.799 777.751C790.689 764.852 801.493 749.975 809.764 733.715C818.183 717.164 823.522 700.208 826.794 681.988C830.015 664.046 831.083 645.744 831.573 627.6C831.798 619.27 831.894 610.94 831.943 602.609C832.005 592.718 832 582.827 832 572.936C832 572.936 831.994 461.42 831.994 459.416V372.581C831.994 371.101 832 259.119 832 259.119" fill="white"/>
</mask>
<g mask="url(#mask0_151_49)">
<rect width="832" height="832" transform="translate(0.34375 -0.236816)" fill="#1B1B1B"/>
<rect width="832" height="832" transform="translate(0.34375 -0.236816)" fill="url(#paint0_radial_151_49)"/>
<rect width="832" height="832" transform="translate(0.34375 -0.236816)" fill="url(#paint1_radial_151_49)"/>
<g filter="url(#filter0_f_151_49)">
<path d="M572.262 707.437C568.043 738.596 537.382 762.936 506.911 754.532C463.495 742.638 413.226 724.086 367.994 720.629C362.031 720.173 298.67 715.396 298.67 715.396C287.462 714.602 276.942 709.732 269.114 701.717L149.662 579.398C136.608 566.032 133.075 546.099 140.745 529.1C140.745 529.1 214.608 367.682 217.351 359.288C220.094 350.893 230.162 277.68 236.128 238.349C237.71 227.926 242.884 218.372 250.766 211.322L392.074 84.9217C411.733 67.3369 442.249 69.9428 458.605 90.603L577.31 240.549C584.027 249.036 587.469 259.582 587.519 270.38C587.655 298.788 590.012 357.113 605.807 394.679C621.173 431.22 649.374 470.683 664.113 490.102C669.768 497.555 670.635 507.632 665.857 515.671C655.455 533.183 634.903 566.808 605.807 609.949C585.748 639.695 576.453 676.466 572.262 707.437Z" fill="black" fill-opacity="0.29"/>
</g>
<path d="M573.418 702.232C569.203 733.532 538.572 757.983 508.131 749.541C464.758 737.592 414.538 718.956 369.351 715.483C363.394 715.026 300.095 710.227 300.095 710.227C288.899 709.429 278.389 704.537 270.569 696.485L151.235 573.611C138.194 560.184 134.664 540.16 142.327 523.084C142.327 523.084 216.117 360.933 218.857 352.5C221.598 344.068 231.655 270.522 237.616 231.013C239.195 220.542 244.365 210.944 252.239 203.862L393.407 76.8878C413.048 59.2231 443.533 61.8408 459.872 82.595L578.461 233.222C585.171 241.747 588.609 252.341 588.66 263.188C588.795 291.726 591.15 350.316 606.93 388.053C622.281 424.759 650.454 464.402 665.178 483.909C670.828 491.396 671.694 501.519 666.92 509.594C656.529 527.186 635.997 560.963 606.93 604.301C586.891 634.182 577.605 671.12 573.418 702.232Z" fill="#6C31E3"/>
<path d="M283.428 705.773C338.847 593.265 337.301 512.663 313.719 455.14C292.016 402.206 251.651 368.818 219.835 348.097C219.165 351.09 218.194 354.013 216.935 356.819L142.325 523.084C134.662 540.161 138.192 560.185 151.233 573.611L270.567 696.486C274.311 700.34 278.671 703.47 283.428 705.773Z" fill="url(#paint2_radial_151_49)"/>
<path d="M508.146 749.525C538.58 757.966 569.207 733.516 573.421 702.216C577.05 675.269 584.499 643.949 599.449 616.632C565.148 542.797 523.669 504.508 478.197 487.537C430.064 469.573 377.458 475.496 324.157 488.44C336.073 542.665 328.94 613.483 283.491 705.763C288.666 708.269 294.309 709.795 300.14 710.21C300.14 710.21 332.936 712.972 371.94 715.732C410.943 718.493 468.984 738.665 508.146 749.525Z" fill="url(#paint3_radial_151_49)"/>
<path d="M434.243 477.416C449.218 478.981 463.896 482.208 478.182 487.538C523.662 504.51 565.15 542.801 599.457 616.63C601.763 612.416 604.25 608.295 606.93 604.301C635.996 560.963 656.527 527.186 666.919 509.594C671.692 501.519 670.826 491.395 665.175 483.908C650.452 464.402 622.28 424.759 606.93 388.053C591.149 350.316 588.794 291.726 588.66 263.188C588.608 252.341 585.169 241.747 578.459 233.222L459.871 82.5946C459.238 81.7891 458.581 81.0112 457.906 80.2606C466.608 108.776 466.018 131.716 460.65 152.569C455.674 171.901 446.589 189.44 436.993 207.966L436.991 207.969C433.772 214.182 430.497 220.507 427.298 227.049C414.567 253.092 403.072 282.562 401.377 322.081C399.68 361.602 407.782 411.17 434.246 477.415L434.243 477.416Z" fill="url(#paint4_radial_151_49)"/>
<path d="M434.226 477.415C407.764 411.172 399.659 361.602 401.355 322.08C403.052 282.558 414.547 253.087 427.28 227.042C430.48 220.499 433.756 214.175 436.975 207.96C446.569 189.433 455.654 171.896 460.63 152.566C465.999 131.708 466.588 108.762 457.878 80.2342C441.149 61.6665 412.269 59.9167 393.401 76.8878L252.233 203.862C244.359 210.944 239.189 220.542 237.61 231.013L220.425 344.931C220.265 345.988 220.068 347.038 219.835 348.082C251.652 368.803 292.024 402.194 313.729 455.135C317.968 465.476 321.495 476.559 324.108 488.443C361.594 479.339 398.737 473.71 434.226 477.415Z" fill="url(#paint5_radial_151_49)"/>
<path fill-rule="evenodd" clip-rule="evenodd" d="M401.632 319.477C399.931 358.681 404.824 403.653 431.232 469.759L422.94 469.01C399.247 400.027 394.091 364.659 395.817 324.912C397.544 285.147 410.392 254.569 423.197 228.485C426.44 221.879 434.006 209.474 437.244 203.248C446.832 184.811 453.212 175.073 458.691 158.221C466.347 134.675 464.691 123.523 463.818 112.425C469.897 152.545 446.824 187.432 429.381 222.964C416.675 248.848 403.332 280.291 401.632 319.477Z" fill="url(#paint6_radial_151_49)"/>
<path fill-rule="evenodd" clip-rule="evenodd" d="M321.527 458.055C324.659 465.298 327.618 471.146 329.485 480.107L322.565 481.662C319.686 471.199 317.461 463.755 313.477 454.779C289.631 398.521 251.361 369.583 220.086 348.358C257.862 368.682 296.635 400.492 321.527 458.055Z" fill="url(#paint7_radial_151_49)"/>
<path fill-rule="evenodd" clip-rule="evenodd" d="M329.887 487.185C343.101 548.675 328.36 626.792 284.919 702.728C321.229 627.472 338.832 555.193 324.172 488.411L329.887 487.185Z" fill="url(#paint8_radial_151_49)"/>
<path fill-rule="evenodd" clip-rule="evenodd" d="M479.822 481.654C551.046 508.308 578.47 566.832 598.969 615.651C573.652 564.53 538.456 508.074 477.267 487.119C430.708 471.173 391.387 473.064 324.168 488.32L322.669 481.654C394.009 465.4 431.309 463.499 479.822 481.654Z" fill="url(#paint9_radial_151_49)"/>
<g style="mix-blend-mode:screen" filter="url(#filter1_i_151_49)">
<path fill-rule="evenodd" clip-rule="evenodd" d="M832.344 259.119C832.344 249.242 832.348 239.364 832.287 229.486C832.238 221.165 832.142 212.846 831.916 204.529C831.427 186.402 830.358 168.119 827.134 150.194C823.864 132.01 818.525 115.086 810.111 98.5644C801.84 82.3253 791.035 67.4655 778.143 54.5826C765.254 41.6998 750.39 30.902 734.145 22.6356C717.606 14.2197 700.664 8.88238 682.461 5.61396C664.533 2.39502 646.246 1.32776 628.118 0.838055C619.796 0.612891 611.473 0.517979 603.148 0.466484C593.265 0.405901 583.382 0.41095 573.499 0.41095L458.748 0H372.924L260.203 0.41095C250.301 0.41095 240.399 0.405901 230.497 0.466484C222.155 0.517979 213.817 0.612891 205.478 0.838055C187.308 1.32776 168.979 2.39603 151.009 5.61901C132.781 8.88641 115.814 14.2217 99.2531 22.6315C82.9737 30.899 68.0775 41.6978 55.1614 54.5826C42.2474 67.4645 31.4224 82.3213 23.1357 98.5573C14.6987 115.087 9.34928 132.021 6.07179 150.215C2.84478 168.133 1.77551 186.41 1.28378 204.529C1.05963 212.847 0.962697 221.166 0.912212 229.486C0.85163 239.365 0.34375 251.636 0.34375 261.514L0.346779 372.672L0.34375 459.416L0.856678 572.936C0.856678 582.827 0.852639 592.718 0.912212 602.609C0.962697 610.941 1.05963 619.271 1.28479 627.6C1.77551 645.751 2.8468 664.06 6.07683 682.009C9.35331 700.217 14.7017 717.165 23.1317 733.708C31.4193 749.971 42.2464 764.85 55.1614 777.751C68.0765 790.652 82.9686 801.463 99.245 809.742C115.816 818.169 132.791 823.513 151.031 826.786C168.992 830.01 187.315 831.079 205.478 831.569C213.817 831.794 222.156 831.89 230.498 831.94C240.4 832.001 250.301 831.997 260.203 831.997L373.942 832H459.98L573.499 831.996C583.382 831.996 593.265 832.001 603.148 831.94C611.473 831.89 619.796 831.794 628.118 831.569C646.253 831.078 664.546 830.008 682.482 826.782C700.675 823.509 717.608 818.167 734.138 809.745C750.386 801.468 765.253 790.654 778.143 777.751C791.033 764.852 801.837 749.975 810.108 733.715C818.527 717.164 823.866 700.208 827.138 681.988C830.359 664.046 831.427 645.744 831.917 627.6C832.142 619.27 832.238 610.94 832.287 602.609C832.349 592.718 832.344 582.827 832.344 572.936C832.344 572.936 832.338 461.42 832.338 459.416V372.581C832.338 371.101 832.344 259.119 832.344 259.119Z" fill="#6C31E3"/>
</g>
</g>
<path d="M1060.2 503.6V459.2H1231.4V503.6H1060.2ZM995.8 560L1117.4 301.2H1175L1297.8 560H1239.8L1133.4 326.8H1159L1053.4 560H995.8ZM1418.69 526H1399.89L1472.69 361.2H1529.49L1433.89 560H1384.69L1291.09 361.2H1348.29L1418.69 526ZM1732.09 494H1782.49C1780.36 507.6 1774.62 519.733 1765.29 530.4C1756.22 541.067 1743.82 549.467 1728.09 555.6C1712.36 561.733 1693.16 564.8 1670.49 564.8C1645.16 564.8 1622.76 560.8 1603.29 552.8C1583.82 544.533 1568.62 532.667 1557.69 517.2C1546.76 501.733 1541.29 483.067 1541.29 461.2C1541.29 439.333 1546.62 420.667 1557.29 405.2C1567.96 389.467 1582.76 377.467 1601.69 369.2C1620.89 360.933 1643.29 356.8 1668.89 356.8C1695.02 356.8 1716.76 360.933 1734.09 369.2C1751.42 377.467 1764.22 390 1772.49 406.8C1781.02 423.333 1784.62 444.533 1783.29 470.4H1593.69C1595.02 480.533 1598.76 489.733 1604.89 498C1611.29 506.267 1619.82 512.8 1630.49 517.6C1641.42 522.4 1654.36 524.8 1669.29 524.8C1685.82 524.8 1699.56 522 1710.49 516.4C1721.69 510.533 1728.89 503.067 1732.09 494ZM1666.49 396.4C1647.29 396.4 1631.69 400.667 1619.69 409.2C1607.69 417.467 1599.96 427.733 1596.49 440H1731.69C1730.36 426.667 1723.96 416.133 1712.49 408.4C1701.29 400.4 1685.96 396.4 1666.49 396.4ZM1821.98 361.2H1873.98V560H1821.98V361.2ZM1966.38 356.8C1978.65 356.8 1989.98 358.4 2000.38 361.6C2010.78 364.8 2019.85 369.733 2027.58 376.4C2035.32 383.067 2041.32 391.6 2045.58 402C2049.85 412.133 2051.98 424.267 2051.98 438.4V560H1999.98V447.6C1999.98 430.8 1995.85 418.533 1987.58 410.8C1979.58 402.8 1966.38 398.8 1947.98 398.8C1934.12 398.8 1921.58 401.467 1910.38 406.8C1899.18 412.133 1890.12 418.933 1883.18 427.2C1876.25 435.2 1872.25 443.6 1871.18 452.4L1870.78 432C1872.12 422.667 1875.18 413.6 1879.98 404.8C1884.78 396 1891.18 388 1899.18 380.8C1907.45 373.333 1917.18 367.467 1928.38 363.2C1939.58 358.933 1952.25 356.8 1966.38 356.8ZM2103.33 281.2H2155.33V560H2103.33V281.2ZM2304.72 564.4C2284.99 564.4 2266.99 560.133 2250.72 551.6C2234.72 542.8 2221.92 530.667 2212.32 515.2C2202.99 499.467 2198.32 481.333 2198.32 460.8C2198.32 439.733 2203.12 421.467 2212.72 406C2222.32 390.533 2235.26 378.533 2251.52 370C2268.06 361.2 2286.72 356.8 2307.52 356.8C2330.46 356.8 2348.86 361.467 2362.72 370.8C2376.86 379.867 2387.12 392.267 2393.52 408C2399.92 423.733 2403.12 441.333 2403.12 460.8C2403.12 472.533 2401.26 484.533 2397.52 496.8C2393.79 508.8 2388.06 520 2380.32 530.4C2372.59 540.533 2362.46 548.8 2349.92 555.2C2337.39 561.333 2322.32 564.4 2304.72 564.4ZM2321.52 524.4C2337.26 524.4 2350.86 521.733 2362.32 516.4C2373.79 511.067 2382.59 503.6 2388.72 494C2394.86 484.4 2397.92 473.333 2397.92 460.8C2397.92 447.2 2394.72 435.733 2388.32 426.4C2382.19 416.8 2373.39 409.6 2361.92 404.8C2350.72 399.733 2337.26 397.2 2321.52 397.2C2299.39 397.2 2282.19 403.067 2269.92 414.8C2257.66 426.267 2251.52 441.6 2251.52 460.8C2251.52 473.6 2254.46 484.8 2260.32 494.4C2266.19 503.733 2274.32 511.067 2284.72 516.4C2295.39 521.733 2307.66 524.4 2321.52 524.4ZM2397.92 361.2H2449.92V560H2401.52C2401.52 560 2401.12 557.467 2400.32 552.4C2399.79 547.067 2399.26 540.4 2398.72 532.4C2398.19 524.4 2397.92 516.533 2397.92 508.8V361.2ZM2646.28 564.4C2628.68 564.4 2613.61 561.333 2601.08 555.2C2588.54 548.8 2578.41 540.533 2570.68 530.4C2562.94 520 2557.21 508.8 2553.48 496.8C2549.74 484.533 2547.88 472.533 2547.88 460.8C2547.88 446.133 2549.61 432.533 2553.08 420C2556.81 407.467 2562.54 396.533 2570.28 387.2C2578.01 377.6 2588.14 370.133 2600.68 364.8C2613.21 359.467 2628.41 356.8 2646.28 356.8C2666.81 356.8 2684.94 361.2 2700.68 370C2716.68 378.533 2729.21 390.533 2738.28 406C2747.61 421.467 2752.28 439.733 2752.28 460.8C2752.28 481.333 2747.61 499.467 2738.28 515.2C2728.94 530.667 2716.28 542.8 2700.28 551.6C2684.28 560.133 2666.28 564.4 2646.28 564.4ZM2629.48 524.4C2643.61 524.4 2655.88 521.733 2666.28 516.4C2676.68 511.067 2684.68 503.733 2690.28 494.4C2696.14 484.8 2699.08 473.6 2699.08 460.8C2699.08 441.6 2692.94 426.133 2680.68 414.4C2668.68 402.667 2651.61 396.8 2629.48 396.8C2614.01 396.8 2600.54 399.333 2589.08 404.4C2577.61 409.467 2568.68 416.8 2562.28 426.4C2556.14 435.733 2553.08 447.2 2553.08 460.8C2553.08 473.333 2556.14 484.4 2562.28 494C2568.41 503.6 2577.21 511.067 2588.68 516.4C2600.14 521.733 2613.74 524.4 2629.48 524.4ZM2553.08 281.2V508.8C2553.08 517.333 2552.68 526.533 2551.88 536.4C2551.08 546 2550.28 553.867 2549.48 560H2501.08V281.2H2553.08ZM2782.73 494H2830.73C2833.67 503.067 2839.67 510.533 2848.73 516.4C2858.07 522 2870.2 524.8 2885.13 524.8C2895.27 524.8 2903.13 523.867 2908.73 522C2914.33 520.133 2918.2 517.467 2920.33 514C2922.47 510.267 2923.53 506.133 2923.53 501.6C2923.53 496 2921.8 491.733 2918.33 488.8C2914.87 485.6 2909.53 483.067 2902.33 481.2C2895.13 479.333 2885.93 477.6 2874.73 476C2863.53 474.133 2852.73 471.867 2842.33 469.2C2831.93 466.533 2822.73 463.067 2814.73 458.8C2806.73 454.267 2800.33 448.667 2795.53 442C2791 435.067 2788.73 426.667 2788.73 416.8C2788.73 407.2 2791 398.667 2795.53 391.2C2800.33 383.733 2806.87 377.467 2815.13 372.4C2823.67 367.333 2833.53 363.467 2844.73 360.8C2856.2 358.133 2868.47 356.8 2881.53 356.8C2901.27 356.8 2917.67 359.733 2930.73 365.6C2943.8 371.2 2953.53 379.2 2959.93 389.6C2966.6 399.733 2969.93 411.467 2969.93 424.8H2923.93C2921.8 414.933 2917.53 407.867 2911.13 403.6C2904.73 399.067 2894.87 396.8 2881.53 396.8C2868.47 396.8 2858.6 398.8 2851.93 402.8C2845.27 406.8 2841.93 412.267 2841.93 419.2C2841.93 424.8 2843.93 429.2 2847.93 432.4C2852.2 435.333 2858.33 437.733 2866.33 439.6C2874.6 441.467 2884.87 443.467 2897.13 445.6C2907.53 447.733 2917.4 450.133 2926.73 452.8C2936.33 455.467 2944.87 458.933 2952.33 463.2C2959.8 467.2 2965.67 472.667 2969.93 479.6C2974.47 486.267 2976.73 494.8 2976.73 505.2C2976.73 518 2973 528.8 2965.53 537.6C2958.33 546.4 2947.93 553.2 2934.33 558C2920.73 562.533 2904.47 564.8 2885.53 564.8C2868.73 564.8 2854.2 563.067 2841.93 559.6C2829.93 555.867 2819.93 551.2 2811.93 545.6C2803.93 539.733 2797.67 533.6 2793.13 527.2C2788.87 520.533 2785.93 514.267 2784.33 508.4C2782.73 502.533 2782.2 497.733 2782.73 494Z" fill="#6C31E3"/>
<defs>
<filter id="filter0_f_151_49" x="123.736" y="60.2524" width="558.222" height="708.957" filterUnits="userSpaceOnUse" color-interpolation-filters="sRGB">
<feFlood flood-opacity="0" result="BackgroundImageFix"/>
<feBlend mode="normal" in="SourceGraphic" in2="BackgroundImageFix" result="shape"/>
<feGaussianBlur stdDeviation="6.5" result="effect1_foregroundBlur_151_49"/>
</filter>
<filter id="filter1_i_151_49" x="0.34375" y="0" width="832" height="833" filterUnits="userSpaceOnUse" color-interpolation-filters="sRGB">
<feFlood flood-opacity="0" result="BackgroundImageFix"/>
<feBlend mode="normal" in="SourceGraphic" in2="BackgroundImageFix" result="shape"/>
<feColorMatrix in="SourceAlpha" type="matrix" values="0 0 0 0 0 0 0 0 0 0 0 0 0 0 0 0 0 0 127 0" result="hardAlpha"/>
<feOffset dy="6"/>
<feGaussianBlur stdDeviation="0.5"/>
<feComposite in2="hardAlpha" operator="arithmetic" k2="-1" k3="1"/>
<feColorMatrix type="matrix" values="0 0 0 0 1 0 0 0 0 1 0 0 0 0 1 0 0 0 0.07 0"/>
<feBlend mode="normal" in2="shape" result="effect1_innerShadow_151_49"/>
</filter>
<radialGradient id="paint0_radial_151_49" cx="0" cy="0" r="1" gradientUnits="userSpaceOnUse" gradientTransform="translate(416 521.793) rotate(90) scale(339.695 441.724)">
<stop stop-opacity="0.35"/>
<stop offset="1" stop-opacity="0"/>
</radialGradient>
<radialGradient id="paint1_radial_151_49" cx="0" cy="0" r="1" gradientUnits="userSpaceOnUse" gradientTransform="translate(416) rotate(90) scale(832)">
<stop stop-color="white" stop-opacity="0.05"/>
<stop offset="1" stop-color="white" stop-opacity="0"/>
</radialGradient>
<radialGradient id="paint2_radial_151_49" cx="0" cy="0" r="1" gradientUnits="userSpaceOnUse" gradientTransform="translate(277.468 694.667) rotate(-104.574) scale(312.164 208.025)">
<stop stop-color="white" stop-opacity="0.4"/>
<stop offset="1" stop-opacity="0.1"/>
</radialGradient>
<radialGradient id="paint3_radial_151_49" cx="0" cy="0" r="1" gradientUnits="userSpaceOnUse" gradientTransform="translate(494.168 764.607) rotate(-115.936) scale(257.775 295.978)">
<stop stop-color="white" stop-opacity="0.3"/>
<stop offset="1" stop-opacity="0.25"/>
</radialGradient>
<radialGradient id="paint4_radial_151_49" cx="0" cy="0" r="1" gradientUnits="userSpaceOnUse" gradientTransform="translate(543.525 566.311) rotate(-82.4846) scale(512.246 378.451)">
<stop stop-color="white" stop-opacity="0.55"/>
<stop offset="1" stop-color="white" stop-opacity="0.05"/>
</radialGradient>
<radialGradient id="paint5_radial_151_49" cx="0" cy="0" r="1" gradientUnits="userSpaceOnUse" gradientTransform="translate(296.173 476.378) rotate(-77.7214) scale(437.431 298.317)">
<stop stop-color="white" stop-opacity="0.83"/>
<stop offset="1" stop-color="white" stop-opacity="0.4"/>
</radialGradient>
<radialGradient id="paint6_radial_151_49" cx="0" cy="0" r="1" gradientUnits="userSpaceOnUse" gradientTransform="translate(476.526 236.681) rotate(102.236) scale(227.604 153.482)">
<stop stop-color="white" stop-opacity="0"/>
<stop offset="1" stop-color="white" stop-opacity="0.17"/>
</radialGradient>
<radialGradient id="paint7_radial_151_49" cx="0" cy="0" r="1" gradientUnits="userSpaceOnUse" gradientTransform="translate(209.872 359.957) rotate(45.3237) scale(167.71 357.205)">
<stop stop-color="white" stop-opacity="0.2"/>
<stop offset="1" stop-color="white" stop-opacity="0.44"/>
</radialGradient>
<radialGradient id="paint8_radial_151_49" cx="0" cy="0" r="1" gradientUnits="userSpaceOnUse" gradientTransform="translate(336.487 439.314) rotate(80.2016) scale(196.566 417.419)">
<stop stop-color="white" stop-opacity="0.12"/>
<stop offset="1" stop-color="white" stop-opacity="0.35"/>
</radialGradient>
<radialGradient id="paint9_radial_151_49" cx="0" cy="0" r="1" gradientUnits="userSpaceOnUse" gradientTransform="translate(597.124 599.809) rotate(-152.297) scale(299.519 942.568)">
<stop stop-color="white" stop-opacity="0.21"/>
<stop offset="0.46738" stop-color="white" stop-opacity="0.19"/>
<stop offset="1" stop-color="white" stop-opacity="0.29"/>
</radialGradient>
</defs>
</svg>
