<svg width="246" height="252" viewBox="0 0 246 252" fill="none" xmlns="http://www.w3.org/2000/svg">
<g filter="url(#filter0_d_181_74)">
<path fill-rule="evenodd" clip-rule="evenodd" d="M223.844 81.4433C223.844 79.0572 223.845 76.6708 223.83 74.2844C223.818 72.2742 223.795 70.2644 223.74 68.2552C223.622 63.8759 223.364 59.459 222.585 55.1285C221.795 50.7356 220.505 46.647 218.473 42.6556C216.474 38.7324 213.864 35.1425 210.75 32.0302C207.636 28.9179 204.045 26.3093 200.12 24.3122C196.125 22.279 192.032 20.9896 187.634 20.2C183.303 19.4224 178.885 19.1645 174.506 19.0462C172.495 18.9918 170.484 18.9689 168.473 18.9564C166.085 18.9418 163.698 18.943 161.31 18.943L133.588 18.8438H112.854L85.6224 18.943C83.2301 18.943 80.8379 18.9418 78.4457 18.9564C76.4303 18.9689 74.416 18.9918 72.4013 19.0462C68.0118 19.1645 63.5838 19.4226 59.2425 20.2012C54.8389 20.9906 50.7399 22.2795 46.7389 24.3112C42.806 26.3085 39.2073 28.9174 36.087 32.0302C32.9671 35.1423 30.3519 38.7315 28.35 42.6539C26.3117 46.6473 25.0194 50.7382 24.2276 55.1336C23.448 59.4624 23.1896 63.8778 23.0708 68.2552C23.0167 70.2647 22.9933 72.2744 22.9811 74.2844C22.9664 76.671 22.8438 79.6355 22.8438 82.0219L22.8445 108.876L22.8438 129.832L22.9677 157.257C22.9677 159.647 22.9667 162.036 22.9811 164.426C22.9933 166.439 23.0167 168.451 23.0711 170.464C23.1896 174.848 23.4485 179.272 24.2288 183.608C25.0203 188.007 26.3124 192.101 28.349 196.098C30.3512 200.027 32.9669 203.621 36.087 206.738C39.2071 209.855 42.8048 212.467 46.737 214.467C50.7403 216.502 54.8413 217.794 59.2477 218.584C63.5869 219.363 68.0135 219.621 72.4013 219.74C74.416 219.794 76.4306 219.817 78.4459 219.829C80.8382 219.844 83.2301 219.843 85.6224 219.843L113.1 219.844H133.886L161.31 219.843C163.698 219.843 166.085 219.844 168.473 219.829C170.484 219.817 172.495 219.794 174.506 219.74C178.887 219.621 183.306 219.362 187.639 218.583C192.034 217.793 196.125 216.502 200.119 214.467C204.044 212.468 207.636 209.855 210.75 206.738C213.864 203.622 216.474 200.028 218.472 196.099C220.506 192.101 221.796 188.005 222.586 183.603C223.364 179.268 223.622 174.847 223.741 170.464C223.795 168.451 223.818 166.439 223.83 164.426C223.845 162.036 223.844 159.647 223.844 157.257C223.844 157.257 223.842 130.317 223.842 129.832V108.854C223.842 108.497 223.844 81.4433 223.844 81.4433" fill="#F2F2F2"/>
</g>
<mask id="mask0_181_74" style="mask-type:luminance" maskUnits="userSpaceOnUse" x="23" y="19" width="201" height="201">
<path fill-rule="evenodd" clip-rule="evenodd" d="M224 81.5996C224 79.2134 224.001 76.827 223.986 74.4407C223.974 72.4304 223.951 70.4207 223.897 68.4114C223.778 64.0321 223.52 59.6153 222.741 55.2848C221.951 50.8918 220.662 46.8033 218.629 42.8118C216.631 38.8887 214.02 35.2987 210.906 32.1864C207.792 29.0741 204.201 26.4655 200.277 24.4684C196.281 22.4353 192.188 21.1459 187.79 20.3563C183.459 19.5786 179.041 19.3208 174.662 19.2025C172.651 19.1481 170.64 19.1251 168.629 19.1127C166.242 19.0981 163.854 19.0993 161.467 19.0993L133.744 19H113.01L85.7786 19.0993C83.3864 19.0993 80.9942 19.0981 78.6019 19.1127C76.5866 19.1251 74.5722 19.1481 72.5576 19.2025C68.1681 19.3208 63.74 19.5788 59.3988 20.3575C54.9951 21.1468 50.8961 22.4358 46.8952 24.4675C42.9623 26.4648 39.3636 29.0736 36.2432 32.1864C33.1233 35.2985 30.5082 38.8877 28.5062 42.8101C26.468 46.8035 25.1756 50.8945 24.3838 55.2899C23.6042 59.6187 23.3459 64.0341 23.2271 68.4114C23.1729 70.4209 23.1495 72.4307 23.1373 74.4407C23.1227 76.8273 23 79.7918 23 82.1782L23.0007 109.033L23 129.989L23.1239 157.414C23.1239 159.803 23.1229 162.193 23.1373 164.582C23.1495 166.595 23.1729 168.608 23.2273 170.62C23.3459 175.005 23.6047 179.428 24.385 183.764C25.1766 188.163 26.4687 192.257 28.5053 196.254C30.5074 200.183 33.1231 203.777 36.2432 206.894C39.3633 210.011 42.9611 212.623 46.8932 214.623C50.8966 216.659 54.9975 217.95 59.4039 218.74C63.7432 219.519 68.1698 219.778 72.5576 219.896C74.5722 219.95 76.5868 219.973 78.6022 219.986C80.9944 220 83.3864 219.999 85.7786 219.999L113.256 220H134.042L161.467 219.999C163.854 219.999 166.242 220 168.629 219.986C170.64 219.973 172.651 219.95 174.662 219.896C179.043 219.777 183.462 219.519 187.795 218.739C192.19 217.949 196.281 216.658 200.275 214.624C204.2 212.624 207.792 210.011 210.906 206.894C214.02 203.778 216.63 200.184 218.628 196.256C220.662 192.257 221.952 188.161 222.742 183.759C223.52 179.424 223.778 175.003 223.897 170.62C223.951 168.607 223.974 166.595 223.986 164.582C224.001 162.193 224 159.803 224 157.414C224 157.414 223.999 130.473 223.999 129.989V109.011C223.999 108.653 224 81.5996 224 81.5996" fill="white"/>
</mask>
<g mask="url(#mask0_181_74)">
<rect width="832" height="832" transform="translate(23.3438 18.7632)" fill="#989898"/>
<rect width="832" height="832" transform="translate(23.3438 18.7632)" fill="url(#paint0_linear_181_74)"/>
<rect width="832" height="832" transform="translate(23.3438 18.7632)" fill="url(#paint1_radial_181_74)"/>
<mask id="mask1_181_74" style="mask-type:luminance" maskUnits="userSpaceOnUse" x="24" y="23" width="201" height="201">
<path fill-rule="evenodd" clip-rule="evenodd" d="M225 85.5996C225 83.2134 225.001 80.827 224.986 78.4407C224.974 76.4304 224.951 74.4207 224.897 72.4114C224.778 68.0321 224.52 63.6153 223.741 59.2848C222.951 54.8918 221.662 50.8033 219.629 46.8118C217.631 42.8887 215.02 39.2987 211.906 36.1864C208.792 33.0741 205.201 30.4655 201.277 28.4684C197.281 26.4353 193.188 25.1459 188.79 24.3563C184.459 23.5786 180.041 23.3208 175.662 23.2025C173.651 23.1481 171.64 23.1251 169.629 23.1127C167.242 23.0981 164.854 23.0993 162.467 23.0993L134.744 23H114.01L86.7786 23.0993C84.3864 23.0993 81.9942 23.0981 79.6019 23.1127C77.5866 23.1251 75.5722 23.1481 73.5576 23.2025C69.1681 23.3208 64.74 23.5788 60.3988 24.3575C55.9951 25.1468 51.8961 26.4358 47.8952 28.4675C43.9623 30.4648 40.3636 33.0736 37.2432 36.1864C34.1233 39.2985 31.5082 42.8877 29.5062 46.8101C27.468 50.8035 26.1756 54.8945 25.3838 59.2899C24.6042 63.6187 24.3459 68.0341 24.2271 72.4114C24.1729 74.4209 24.1495 76.4307 24.1373 78.4407C24.1227 80.8273 24 83.7918 24 86.1782L24.0007 113.033L24 133.989L24.1239 161.414C24.1239 163.803 24.1229 166.193 24.1373 168.582C24.1495 170.595 24.1729 172.608 24.2273 174.62C24.3459 179.005 24.6047 183.428 25.385 187.764C26.1766 192.163 27.4687 196.257 29.5053 200.254C31.5074 204.183 34.1231 207.777 37.2432 210.894C40.3633 214.011 43.9611 216.623 47.8932 218.623C51.8966 220.659 55.9975 221.95 60.4039 222.74C64.7432 223.519 69.1698 223.778 73.5576 223.896C75.5722 223.95 77.5868 223.973 79.6022 223.986C81.9944 224 84.3864 223.999 86.7786 223.999L114.256 224H135.042L162.467 223.999C164.854 223.999 167.242 224 169.629 223.986C171.64 223.973 173.651 223.95 175.662 223.896C180.043 223.777 184.462 223.519 188.795 222.739C193.19 221.949 197.281 220.658 201.275 218.624C205.2 216.624 208.792 214.011 211.906 210.894C215.02 207.778 217.63 204.184 219.628 200.256C221.662 196.257 222.952 192.161 223.742 187.759C224.52 183.424 224.778 179.003 224.897 174.62C224.951 172.607 224.974 170.595 224.986 168.582C225.001 166.193 225 163.803 225 161.414C225 161.414 224.999 134.473 224.999 133.989V113.011C224.999 112.653 225 85.5996 225 85.5996" fill="white"/>
</mask>
<g mask="url(#mask1_181_74)">
<rect width="201" height="201" transform="translate(24.3438 22.7632)" fill="#989898"/>
<rect width="201" height="201" transform="translate(24.3438 22.7632)" fill="url(#paint2_linear_181_74)"/>
<rect width="201" height="201" transform="translate(24.3438 22.7632)" fill="url(#paint3_radial_181_74)"/>
<g style="mix-blend-mode:screen" filter="url(#filter1_i_181_74)">
<path fill-rule="evenodd" clip-rule="evenodd" d="M225 85.5996C225 83.2134 225.001 80.827 224.986 78.4407C224.974 76.4304 224.951 74.4207 224.897 72.4114C224.778 68.0321 224.52 63.6153 223.741 59.2848C222.951 54.8918 221.662 50.8033 219.629 46.8118C217.631 42.8887 215.02 39.2987 211.906 36.1864C208.792 33.0741 205.201 30.4655 201.277 28.4684C197.281 26.4353 193.188 25.1459 188.79 24.3563C184.459 23.5786 180.041 23.3208 175.662 23.2025C173.651 23.1481 171.64 23.1251 169.629 23.1127C167.242 23.0981 164.854 23.0993 162.467 23.0993L134.744 23H114.01L86.7786 23.0993C84.3864 23.0993 81.9942 23.0981 79.6019 23.1127C77.5866 23.1251 75.5722 23.1481 73.5576 23.2025C69.1681 23.3208 64.74 23.5788 60.3988 24.3575C55.9951 25.1468 51.8961 26.4358 47.8952 28.4675C43.9623 30.4648 40.3636 33.0736 37.2432 36.1864C34.1233 39.2985 31.5082 42.8877 29.5062 46.8101C27.468 50.8035 26.1756 54.8945 25.3838 59.2899C24.6042 63.6187 24.3459 68.0341 24.2271 72.4114C24.1729 74.4209 24.1495 76.4307 24.1373 78.4407C24.1227 80.8273 24 83.7918 24 86.1782L24.0007 113.033L24 133.989L24.1239 161.414C24.1239 163.803 24.1229 166.193 24.1373 168.582C24.1495 170.595 24.1729 172.608 24.2273 174.62C24.3459 179.005 24.6047 183.428 25.385 187.764C26.1766 192.163 27.4687 196.257 29.5053 200.254C31.5074 204.183 34.1231 207.777 37.2432 210.894C40.3633 214.011 43.9611 216.623 47.8932 218.623C51.8966 220.659 55.9975 221.95 60.4039 222.74C64.7432 223.519 69.1698 223.778 73.5576 223.896C75.5722 223.95 77.5868 223.973 79.6022 223.986C81.9944 224 84.3864 223.999 86.7786 223.999L114.256 224H135.042L162.467 223.999C164.854 223.999 167.242 224 169.629 223.986C171.64 223.973 173.651 223.95 175.662 223.896C180.043 223.777 184.462 223.519 188.795 222.739C193.19 221.949 197.281 220.658 201.275 218.624C205.2 216.624 208.792 214.011 211.906 210.894C215.02 207.778 217.63 204.184 219.628 200.256C221.662 196.257 222.952 192.161 223.742 187.759C224.52 183.424 224.778 179.003 224.897 174.62C224.951 172.607 224.974 170.595 224.986 168.582C225.001 166.193 225 163.803 225 161.414C225 161.414 224.999 134.473 224.999 133.989V113.011C224.999 112.653 225 85.5996 225 85.5996Z" fill="black"/>
</g>
<g filter="url(#filter2_f_181_74)">
<path d="M167.132 193.406C166.116 200.933 158.737 206.814 151.403 204.783C140.954 201.91 128.855 197.428 117.968 196.593C116.533 196.483 101.283 195.328 101.283 195.328C98.5855 195.137 96.0536 193.96 94.1696 192.024L65.4197 162.473C62.2777 159.244 61.4273 154.429 63.2735 150.322C63.2735 150.322 81.0509 111.326 81.7111 109.298C82.3714 107.27 84.7945 89.5823 86.2304 80.0805C86.6111 77.5625 87.8565 75.2542 89.7534 73.551L123.764 43.0144C128.495 38.7662 135.84 39.3957 139.777 44.387L168.347 80.6118C169.963 82.6621 170.792 85.2099 170.804 87.8186C170.837 94.6818 171.404 108.772 175.206 117.848C178.904 126.675 185.691 136.209 189.239 140.9C190.6 142.701 190.808 145.136 189.658 147.078C187.155 151.308 182.208 159.432 175.206 169.854C170.378 177.04 168.141 185.924 167.132 193.406Z" fill="#BF9FFF" fill-opacity="0.73"/>
</g>
<path d="M166.114 191.907C165.096 199.468 157.696 205.375 150.341 203.336C139.863 200.449 127.731 195.947 116.814 195.108C115.375 194.997 100.083 193.838 100.083 193.838C97.3778 193.645 94.8389 192.463 92.9497 190.518L64.1202 160.834C60.9695 157.59 60.1167 152.752 61.9681 148.627C61.9681 148.627 79.7947 109.453 80.4567 107.416C81.1188 105.379 83.5487 87.6114 84.9885 78.0664C85.3702 75.5369 86.6191 73.2181 88.5213 71.5073L122.626 40.8319C127.371 36.5644 134.735 37.1968 138.683 42.2107L167.332 78.6001C168.953 80.6598 169.784 83.2192 169.796 85.8397C169.829 92.734 170.398 106.889 174.21 116.005C177.918 124.873 184.725 134.45 188.282 139.163C189.647 140.971 189.856 143.417 188.703 145.368C186.192 149.618 181.232 157.778 174.21 168.248C169.369 175.467 167.125 184.39 166.114 191.907Z" fill="#6C31E3"/>
<path d="M96.0563 192.762C109.445 165.582 109.071 146.109 103.374 132.213C98.131 119.425 88.3793 111.358 80.693 106.353C80.5311 107.076 80.2964 107.782 79.9925 108.46L61.9676 148.627C60.1162 152.752 60.9691 157.59 64.1197 160.834L92.9492 190.519C93.8537 191.45 94.9071 192.206 96.0563 192.762Z" fill="url(#paint4_radial_181_74)"/>
<path d="M150.345 203.332C157.697 205.371 165.097 199.464 166.115 191.903C166.991 185.393 168.791 177.826 172.403 171.227C164.116 153.389 154.095 144.139 143.11 140.039C131.481 135.699 118.773 137.13 105.896 140.257C108.774 153.357 107.051 170.466 96.0713 192.76C97.3216 193.365 98.6849 193.734 100.094 193.834C100.094 193.834 108.017 194.501 117.439 195.168C126.862 195.835 140.884 200.708 150.345 203.332Z" fill="url(#paint5_radial_181_74)"/>
<path d="M132.491 137.594C136.109 137.972 139.655 138.752 143.106 140.039C154.093 144.14 164.116 153.39 172.404 171.226C172.962 170.208 173.563 169.213 174.21 168.248C181.232 157.778 186.192 149.618 188.702 145.368C189.856 143.417 189.646 140.971 188.281 139.163C184.724 134.45 177.918 124.873 174.21 116.005C170.397 106.888 169.828 92.7339 169.796 85.8396C169.784 83.2191 168.953 80.6597 167.332 78.6001L138.682 42.2106C138.529 42.016 138.371 41.8281 138.208 41.6467C140.31 48.5358 140.167 54.0776 138.871 59.1155C137.668 63.7858 135.474 68.0231 133.155 72.4987L133.155 72.4994C132.377 74.0004 131.586 75.5284 130.813 77.1088C127.738 83.4004 124.96 90.5201 124.551 100.067C124.141 109.615 126.098 121.59 132.492 137.594L132.491 137.594Z" fill="url(#paint6_radial_181_74)"/>
<path d="M132.487 137.594C126.094 121.591 124.136 109.615 124.546 100.067C124.956 90.519 127.733 83.3992 130.809 77.1073C131.582 75.5266 132.373 73.9986 133.151 72.4972C135.469 68.0214 137.664 63.7846 138.866 59.1147C140.163 54.0757 140.305 48.5323 138.201 41.6404C134.159 37.1547 127.183 36.732 122.624 40.8319L88.5198 71.5073C86.6177 73.2181 85.3688 75.5369 84.9871 78.0664L80.8354 105.588C80.7969 105.843 80.7493 106.097 80.693 106.349C88.3796 111.355 98.1329 119.422 103.376 132.211C104.401 134.71 105.253 137.387 105.884 140.258C114.94 138.059 123.913 136.699 132.487 137.594Z" fill="url(#paint7_radial_181_74)"/>
<path fill-rule="evenodd" clip-rule="evenodd" d="M124.613 99.4383C124.202 108.909 125.384 119.774 131.764 135.744L129.76 135.564C124.037 118.898 122.791 110.354 123.208 100.751C123.625 91.1446 126.729 83.7573 129.823 77.4559C130.606 75.86 132.434 72.8631 133.216 71.3588C135.532 66.9049 137.074 64.5521 138.397 60.4811C140.247 54.7927 139.847 52.0985 139.636 49.4172C141.105 59.1097 135.531 67.5379 131.317 76.1219C128.247 82.3752 125.024 89.9716 124.613 99.4383Z" fill="url(#paint8_radial_181_74)"/>
<path fill-rule="evenodd" clip-rule="evenodd" d="M105.26 132.917C106.017 134.666 106.732 136.079 107.183 138.244L105.511 138.62C104.816 136.092 104.278 134.294 103.316 132.125C97.5547 118.534 88.3093 111.543 80.7538 106.416C89.88 111.325 99.2468 119.01 105.26 132.917Z" fill="url(#paint9_radial_181_74)"/>
<path fill-rule="evenodd" clip-rule="evenodd" d="M107.28 139.954C110.472 154.809 106.911 173.682 96.4165 192.027C105.189 173.846 109.441 156.384 105.9 140.251L107.28 139.954Z" fill="url(#paint10_radial_181_74)"/>
<path fill-rule="evenodd" clip-rule="evenodd" d="M143.502 138.618C160.709 145.057 167.334 159.196 172.287 170.99C166.17 158.64 157.667 145.001 142.885 139.938C131.637 136.086 122.138 136.543 105.898 140.228L105.536 138.618C122.771 134.691 131.782 134.232 143.502 138.618Z" fill="url(#paint11_radial_181_74)"/>
</g>
<g filter="url(#filter3_f_181_74)">
<path d="M167.132 191.406C166.116 198.933 158.737 204.814 151.403 202.783C140.954 199.91 128.855 195.428 117.968 194.593C116.533 194.483 101.283 193.328 101.283 193.328C98.5855 193.137 96.0536 191.96 94.1696 190.024L65.4197 160.473C62.2777 157.244 61.4273 152.429 63.2735 148.322C63.2735 148.322 81.0509 109.326 81.7111 107.298C82.3714 105.27 84.7945 87.5823 86.2304 78.0805C86.6111 75.5625 87.8565 73.2542 89.7534 71.551L123.764 41.0144C128.495 36.7662 135.84 37.3957 139.777 42.387L168.347 78.6118C169.963 80.6621 170.792 83.2099 170.804 85.8186C170.837 92.6818 171.404 106.772 175.206 115.848C178.904 124.675 185.691 134.209 189.239 138.9C190.6 140.701 190.808 143.136 189.658 145.078C187.155 149.308 182.208 157.432 175.206 167.854C170.378 175.04 168.141 183.924 167.132 191.406Z" fill="#BF9FFF" fill-opacity="0.73"/>
</g>
<path d="M166.114 189.907C165.096 197.468 157.696 203.375 150.341 201.336C139.863 198.449 127.731 193.947 116.814 193.108C115.375 192.997 100.083 191.838 100.083 191.838C97.3778 191.645 94.8389 190.463 92.9497 188.518L64.1202 158.834C60.9695 155.59 60.1167 150.752 61.9681 146.627C61.9681 146.627 79.7947 107.453 80.4567 105.416C81.1188 103.379 83.5487 85.6114 84.9885 76.0664C85.3702 73.5369 86.6191 71.2181 88.5213 69.5073L122.626 38.8319C127.371 34.5644 134.735 35.1968 138.683 40.2107L167.332 76.6001C168.953 78.6598 169.784 81.2192 169.796 83.8397C169.829 90.734 170.398 104.889 174.21 114.005C177.918 122.873 184.725 132.45 188.282 137.163C189.647 138.971 189.856 141.417 188.703 143.368C186.192 147.618 181.232 155.778 174.21 166.248C169.369 173.467 167.125 182.39 166.114 189.907Z" fill="#6C31E3"/>
<path d="M96.0563 190.762C109.445 163.582 109.071 144.109 103.374 130.213C98.131 117.425 88.3793 109.358 80.693 104.353C80.5311 105.076 80.2964 105.782 79.9925 106.46L61.9676 146.627C60.1162 150.752 60.9691 155.59 64.1197 158.834L92.9492 188.519C93.8537 189.45 94.9071 190.206 96.0563 190.762Z" fill="url(#paint12_radial_181_74)"/>
<path d="M150.345 201.332C157.697 203.371 165.097 197.464 166.115 189.903C166.991 183.393 168.791 175.826 172.403 169.227C164.116 151.389 154.095 142.139 143.11 138.039C131.481 133.699 118.773 135.13 105.896 138.257C108.774 151.357 107.051 168.466 96.0713 190.76C97.3216 191.365 98.6849 191.734 100.094 191.834C100.094 191.834 108.017 192.501 117.439 193.168C126.862 193.835 140.884 198.708 150.345 201.332Z" fill="url(#paint13_radial_181_74)"/>
<path d="M132.491 135.594C136.109 135.972 139.655 136.752 143.106 138.039C154.093 142.14 164.116 151.39 172.404 169.226C172.962 168.208 173.563 167.213 174.21 166.248C181.232 155.778 186.192 147.618 188.702 143.368C189.856 141.417 189.646 138.971 188.281 137.163C184.724 132.45 177.918 122.873 174.21 114.005C170.397 104.888 169.828 90.7339 169.796 83.8396C169.784 81.2191 168.953 78.6597 167.332 76.6001L138.682 40.2106C138.529 40.016 138.371 39.8281 138.208 39.6467C140.31 46.5358 140.167 52.0776 138.871 57.1155C137.668 61.7858 135.474 66.0231 133.155 70.4987L133.155 70.4994C132.377 72.0004 131.586 73.5284 130.813 75.1088C127.738 81.4004 124.96 88.5201 124.551 98.0673C124.141 107.615 126.098 119.59 132.492 135.594L132.491 135.594Z" fill="url(#paint14_radial_181_74)"/>
<path d="M132.487 135.594C126.094 119.591 124.136 107.615 124.546 98.067C124.956 88.519 127.733 81.3992 130.809 75.1073C131.582 73.5266 132.373 71.9986 133.151 70.4972C135.469 66.0214 137.664 61.7846 138.866 57.1147C140.163 52.0757 140.305 46.5323 138.201 39.6404C134.159 35.1547 127.183 34.732 122.624 38.8319L88.5198 69.5073C86.6177 71.2181 85.3688 73.5369 84.9871 76.0664L80.8354 103.588C80.7969 103.843 80.7493 104.097 80.693 104.349C88.3796 109.355 98.1329 117.422 103.376 130.211C104.401 132.71 105.253 135.387 105.884 138.258C114.94 136.059 123.913 134.699 132.487 135.594Z" fill="url(#paint15_radial_181_74)"/>
<path fill-rule="evenodd" clip-rule="evenodd" d="M124.613 97.4383C124.202 106.909 125.384 117.774 131.764 133.744L129.76 133.564C124.037 116.898 122.791 108.354 123.208 98.7513C123.625 89.1446 126.729 81.7573 129.823 75.4559C130.606 73.86 132.434 70.8631 133.216 69.3588C135.532 64.9049 137.074 62.5521 138.397 58.4811C140.247 52.7927 139.847 50.0985 139.636 47.4172C141.105 57.1097 135.531 65.5379 131.317 74.1219C128.247 80.3752 125.024 87.9716 124.613 97.4383Z" fill="url(#paint16_radial_181_74)"/>
<path fill-rule="evenodd" clip-rule="evenodd" d="M105.26 130.917C106.017 132.666 106.732 134.079 107.183 136.244L105.511 136.62C104.816 134.092 104.278 132.294 103.316 130.125C97.5547 116.534 88.3093 109.543 80.7538 104.416C89.88 109.325 99.2468 117.01 105.26 130.917Z" fill="url(#paint17_radial_181_74)"/>
<path fill-rule="evenodd" clip-rule="evenodd" d="M107.28 137.954C110.472 152.809 106.911 171.682 96.4165 190.027C105.189 171.846 109.441 154.384 105.9 138.251L107.28 137.954Z" fill="url(#paint18_radial_181_74)"/>
<path fill-rule="evenodd" clip-rule="evenodd" d="M143.502 136.618C160.709 143.057 167.334 157.196 172.287 168.99C166.17 156.64 157.667 143.001 142.885 137.938C131.637 134.086 122.138 134.543 105.898 138.228L105.536 136.618C122.771 132.691 131.782 132.232 143.502 136.618Z" fill="url(#paint19_radial_181_74)"/>
<g style="mix-blend-mode:screen" filter="url(#filter4_i_181_74)">
<path fill-rule="evenodd" clip-rule="evenodd" d="M224.083 81.5996C224.083 79.2134 224.084 76.827 224.069 74.4407C224.057 72.4304 224.034 70.4207 223.98 68.4114C223.861 64.0321 223.603 59.6153 222.824 55.2848C222.034 50.8918 220.745 46.8033 218.712 42.8118C216.714 38.8887 214.103 35.2987 210.989 32.1864C207.875 29.0741 204.284 26.4655 200.36 24.4684C196.364 22.4353 192.271 21.1459 187.873 20.3563C183.542 19.5786 179.124 19.3208 174.745 19.2025C172.734 19.1481 170.723 19.1251 168.712 19.1127C166.325 19.0981 163.937 19.0993 161.55 19.0993L133.827 19H113.093L85.8616 19.0993C83.4694 19.0993 81.0772 19.0981 78.685 19.1127C76.6696 19.1251 74.6552 19.1481 72.6406 19.2025C68.2511 19.3208 63.823 19.5788 59.4818 20.3575C55.0781 21.1468 50.9791 22.4358 46.9782 24.4675C43.0453 26.4648 39.4466 29.0736 36.3262 32.1864C33.2064 35.2985 30.5912 38.8877 28.5892 42.8101C26.551 46.8035 25.2586 50.8945 24.4668 55.2899C23.6872 59.6187 23.4289 64.0341 23.3101 68.4114C23.256 70.4209 23.2325 72.4307 23.2203 74.4407C23.2057 76.8273 23.083 79.7918 23.083 82.1782L23.0837 109.033L23.083 129.989L23.2069 157.414C23.2069 159.803 23.2059 162.193 23.2203 164.582C23.2325 166.595 23.256 168.608 23.3104 170.62C23.4289 175.005 23.6877 179.428 24.468 183.764C25.2596 188.163 26.5517 192.257 28.5883 196.254C30.5904 200.183 33.2061 203.777 36.3262 206.894C39.4463 210.011 43.0441 212.623 46.9762 214.623C50.9796 216.659 55.0806 217.95 59.4869 218.74C63.8262 219.519 68.2528 219.778 72.6406 219.896C74.6552 219.95 76.6698 219.973 78.6852 219.986C81.0774 220 83.4694 219.999 85.8616 219.999L113.339 220H134.125L161.55 219.999C163.937 219.999 166.325 220 168.712 219.986C170.723 219.973 172.734 219.95 174.745 219.896C179.126 219.777 183.545 219.519 187.878 218.739C192.273 217.949 196.364 216.658 200.358 214.624C204.283 212.624 207.875 210.011 210.989 206.894C214.103 203.778 216.713 200.184 218.711 196.256C220.745 192.257 222.035 188.161 222.825 183.759C223.603 179.424 223.861 175.003 223.98 170.62C224.034 168.607 224.057 166.595 224.069 164.582C224.084 162.193 224.083 159.803 224.083 157.414C224.083 157.414 224.082 130.473 224.082 129.989V109.011C224.082 108.653 224.083 81.5996 224.083 81.5996Z" fill="black"/>
</g>
</g>
<defs>
<filter id="filter0_d_181_74" x="0.84375" y="6.84375" width="245" height="245" filterUnits="userSpaceOnUse" color-interpolation-filters="sRGB">
<feFlood flood-opacity="0" result="BackgroundImageFix"/>
<feColorMatrix in="SourceAlpha" type="matrix" values="0 0 0 0 0 0 0 0 0 0 0 0 0 0 0 0 0 0 127 0" result="hardAlpha"/>
<feOffset dy="10"/>
<feGaussianBlur stdDeviation="11"/>
<feColorMatrix type="matrix" values="0 0 0 0 0 0 0 0 0 0 0 0 0 0 0 0 0 0 0.3 0"/>
<feBlend mode="normal" in2="BackgroundImageFix" result="effect1_dropShadow_181_74"/>
<feBlend mode="normal" in="SourceGraphic" in2="effect1_dropShadow_181_74" result="shape"/>
</filter>
<filter id="filter1_i_181_74" x="24" y="23" width="201" height="203" filterUnits="userSpaceOnUse" color-interpolation-filters="sRGB">
<feFlood flood-opacity="0" result="BackgroundImageFix"/>
<feBlend mode="normal" in="SourceGraphic" in2="BackgroundImageFix" result="shape"/>
<feColorMatrix in="SourceAlpha" type="matrix" values="0 0 0 0 0 0 0 0 0 0 0 0 0 0 0 0 0 0 127 0" result="hardAlpha"/>
<feOffset dy="6"/>
<feGaussianBlur stdDeviation="1"/>
<feComposite in2="hardAlpha" operator="arithmetic" k2="-1" k3="1"/>
<feColorMatrix type="matrix" values="0 0 0 0 1 0 0 0 0 1 0 0 0 0 1 0 0 0 1 0"/>
<feBlend mode="normal" in2="shape" result="effect1_innerShadow_181_74"/>
</filter>
<filter id="filter2_f_181_74" x="44.3086" y="22.1953" width="164.096" height="200.993" filterUnits="userSpaceOnUse" color-interpolation-filters="sRGB">
<feFlood flood-opacity="0" result="BackgroundImageFix"/>
<feBlend mode="normal" in="SourceGraphic" in2="BackgroundImageFix" result="shape"/>
<feGaussianBlur stdDeviation="9" result="effect1_foregroundBlur_181_74"/>
</filter>
<filter id="filter3_f_181_74" x="44.3086" y="20.1953" width="164.096" height="200.993" filterUnits="userSpaceOnUse" color-interpolation-filters="sRGB">
<feFlood flood-opacity="0" result="BackgroundImageFix"/>
<feBlend mode="normal" in="SourceGraphic" in2="BackgroundImageFix" result="shape"/>
<feGaussianBlur stdDeviation="9" result="effect1_foregroundBlur_181_74"/>
</filter>
<filter id="filter4_i_181_74" x="23.083" y="19" width="201" height="203" filterUnits="userSpaceOnUse" color-interpolation-filters="sRGB">
<feFlood flood-opacity="0" result="BackgroundImageFix"/>
<feBlend mode="normal" in="SourceGraphic" in2="BackgroundImageFix" result="shape"/>
<feColorMatrix in="SourceAlpha" type="matrix" values="0 0 0 0 0 0 0 0 0 0 0 0 0 0 0 0 0 0 127 0" result="hardAlpha"/>
<feOffset dy="6"/>
<feGaussianBlur stdDeviation="1"/>
<feComposite in2="hardAlpha" operator="arithmetic" k2="-1" k3="1"/>
<feColorMatrix type="matrix" values="0 0 0 0 1 0 0 0 0 1 0 0 0 0 1 0 0 0 1 0"/>
<feBlend mode="normal" in2="shape" result="effect1_innerShadow_181_74"/>
</filter>
<linearGradient id="paint0_linear_181_74" x1="416" y1="28.7868" x2="416" y2="756.904" gradientUnits="userSpaceOnUse">
<stop stop-color="white" stop-opacity="0.88"/>
<stop offset="1" stop-color="white" stop-opacity="0"/>
</linearGradient>
<radialGradient id="paint1_radial_181_74" cx="0" cy="0" r="1" gradientUnits="userSpaceOnUse" gradientTransform="translate(416 43.9389) rotate(90) scale(661.643 1075.08)">
<stop stop-color="white" stop-opacity="0.95"/>
<stop offset="1" stop-color="white" stop-opacity="0.88"/>
</radialGradient>
<linearGradient id="paint2_linear_181_74" x1="100.5" y1="6.95449" x2="100.5" y2="182.858" gradientUnits="userSpaceOnUse">
<stop stop-color="white" stop-opacity="0.88"/>
<stop offset="1" stop-color="white" stop-opacity="0"/>
</linearGradient>
<radialGradient id="paint3_radial_181_74" cx="0" cy="0" r="1" gradientUnits="userSpaceOnUse" gradientTransform="translate(100.5 10.6151) rotate(90) scale(159.844 259.724)">
<stop stop-color="white" stop-opacity="0.95"/>
<stop offset="1" stop-color="white" stop-opacity="0.88"/>
</radialGradient>
<radialGradient id="paint4_radial_181_74" cx="0" cy="0" r="1" gradientUnits="userSpaceOnUse" gradientTransform="translate(94.6163 190.079) rotate(-104.574) scale(75.4145 50.2561)">
<stop stop-color="white" stop-opacity="0.4"/>
<stop offset="1" stop-opacity="0.1"/>
</radialGradient>
<radialGradient id="paint5_radial_181_74" cx="0" cy="0" r="1" gradientUnits="userSpaceOnUse" gradientTransform="translate(150.922 203.739) rotate(-120.588) scale(61.2955 70.3797)">
<stop stop-color="white" stop-opacity="0.3"/>
<stop offset="1" stop-opacity="0.25"/>
</radialGradient>
<radialGradient id="paint6_radial_181_74" cx="0" cy="0" r="1" gradientUnits="userSpaceOnUse" gradientTransform="translate(158.892 159.07) rotate(-82.4846) scale(123.752 91.4286)">
<stop stop-color="white" stop-opacity="0.55"/>
<stop offset="1" stop-color="white" stop-opacity="0.05"/>
</radialGradient>
<radialGradient id="paint7_radial_181_74" cx="0" cy="0" r="1" gradientUnits="userSpaceOnUse" gradientTransform="translate(99.1353 137.343) rotate(-77.7214) scale(105.677 72.0694)">
<stop stop-color="white" stop-opacity="0.83"/>
<stop offset="1" stop-color="white" stop-opacity="0.4"/>
</radialGradient>
<radialGradient id="paint8_radial_181_74" cx="0" cy="0" r="1" gradientUnits="userSpaceOnUse" gradientTransform="translate(142.706 79.4358) rotate(102.236) scale(54.9861 37.0793)">
<stop stop-color="white" stop-opacity="0"/>
<stop offset="1" stop-color="white" stop-opacity="0.17"/>
</radialGradient>
<radialGradient id="paint9_radial_181_74" cx="0" cy="0" r="1" gradientUnits="userSpaceOnUse" gradientTransform="translate(78.2861 109.218) rotate(45.3237) scale(40.5164 86.296)">
<stop stop-color="white" stop-opacity="0.2"/>
<stop offset="1" stop-color="white" stop-opacity="0.44"/>
</radialGradient>
<radialGradient id="paint10_radial_181_74" cx="0" cy="0" r="1" gradientUnits="userSpaceOnUse" gradientTransform="translate(108.875 128.39) rotate(80.2016) scale(47.4878 100.843)">
<stop stop-color="white" stop-opacity="0.12"/>
<stop offset="1" stop-color="white" stop-opacity="0.35"/>
</radialGradient>
<radialGradient id="paint11_radial_181_74" cx="0" cy="0" r="1" gradientUnits="userSpaceOnUse" gradientTransform="translate(171.841 167.163) rotate(-152.297) scale(72.3598 227.712)">
<stop stop-color="white" stop-opacity="0.21"/>
<stop offset="0.46738" stop-color="white" stop-opacity="0.19"/>
<stop offset="1" stop-color="white" stop-opacity="0.29"/>
</radialGradient>
<radialGradient id="paint12_radial_181_74" cx="0" cy="0" r="1" gradientUnits="userSpaceOnUse" gradientTransform="translate(94.6163 188.079) rotate(-104.574) scale(75.4145 50.2561)">
<stop stop-color="white" stop-opacity="0.4"/>
<stop offset="1" stop-opacity="0.1"/>
</radialGradient>
<radialGradient id="paint13_radial_181_74" cx="0" cy="0" r="1" gradientUnits="userSpaceOnUse" gradientTransform="translate(150.922 201.739) rotate(-120.588) scale(61.2955 70.3797)">
<stop stop-color="white" stop-opacity="0.3"/>
<stop offset="1" stop-opacity="0.25"/>
</radialGradient>
<radialGradient id="paint14_radial_181_74" cx="0" cy="0" r="1" gradientUnits="userSpaceOnUse" gradientTransform="translate(158.892 157.07) rotate(-82.4846) scale(123.752 91.4286)">
<stop stop-color="white" stop-opacity="0.55"/>
<stop offset="1" stop-color="white" stop-opacity="0.05"/>
</radialGradient>
<radialGradient id="paint15_radial_181_74" cx="0" cy="0" r="1" gradientUnits="userSpaceOnUse" gradientTransform="translate(99.1353 135.343) rotate(-77.7214) scale(105.677 72.0694)">
<stop stop-color="white" stop-opacity="0.83"/>
<stop offset="1" stop-color="white" stop-opacity="0.4"/>
</radialGradient>
<radialGradient id="paint16_radial_181_74" cx="0" cy="0" r="1" gradientUnits="userSpaceOnUse" gradientTransform="translate(142.706 77.4358) rotate(102.236) scale(54.9861 37.0793)">
<stop stop-color="white" stop-opacity="0"/>
<stop offset="1" stop-color="white" stop-opacity="0.17"/>
</radialGradient>
<radialGradient id="paint17_radial_181_74" cx="0" cy="0" r="1" gradientUnits="userSpaceOnUse" gradientTransform="translate(78.2861 107.218) rotate(45.3237) scale(40.5164 86.296)">
<stop stop-color="white" stop-opacity="0.2"/>
<stop offset="1" stop-color="white" stop-opacity="0.44"/>
</radialGradient>
<radialGradient id="paint18_radial_181_74" cx="0" cy="0" r="1" gradientUnits="userSpaceOnUse" gradientTransform="translate(108.875 126.39) rotate(80.2016) scale(47.4878 100.843)">
<stop stop-color="white" stop-opacity="0.12"/>
<stop offset="1" stop-color="white" stop-opacity="0.35"/>
</radialGradient>
<radialGradient id="paint19_radial_181_74" cx="0" cy="0" r="1" gradientUnits="userSpaceOnUse" gradientTransform="translate(171.841 165.163) rotate(-152.297) scale(72.3598 227.712)">
<stop stop-color="white" stop-opacity="0.21"/>
<stop offset="0.46738" stop-color="white" stop-opacity="0.19"/>
<stop offset="1" stop-color="white" stop-opacity="0.29"/>
</radialGradient>
</defs>
</svg>
